# xmcd
#
# Track frame offsets:
# 150
# 17597
# 35970
# 51182
# 64117
# 77985
# 92327
# 104515
# 123860
# 139057
# 155410
# 169832
#
# Disc length: 2433 seconds
#
#
# Revision: 0
# Processed by: cddbd v1.5.2PL0 Copyright (c) Steve Scherf et al.
# Submitted via: FreeRIP 2.951 
#
DISCID=9c097f0c
DTITLE=길옥균 - 길옥균 이별무대
DYEAR=1994
DGENRE=Other
TTITLE0=이별
TTITLE1=사랑은 영원히
TTITLE2=빛과 그림자
TTITLE3=서울의 찬가
TTITLE4=그대없이는 못살아
TTITLE5=연인의 길
TTITLE6=사랑이란 두글자
TTITLE7=1990년
TTITLE8=하와이 연정
TTITLE9=구월의 노래
TTITLE10=서울의 모정
TTITLE11=사랑의 세레나데
EXTD=
EXTT0=
EXTT1=
EXTT2=
EXTT3=
EXTT4=
EXTT5=
EXTT6=
EXTT7=
EXTT8=
EXTT9=
EXTT10=
EXTT11=
PLAYORDER=
